<svg width="413" height="413" viewBox="0 0 413 413" fill="none" xmlns="http://www.w3.org/2000/svg">
<g filter="url(#filter0_i_1373_2616)">
<circle cx="206.6" cy="204.6" r="38.5996" fill="white"/>
</g>
<circle cx="206.6" cy="204.6" r="38.261" stroke="#93A2D3" stroke-opacity="0.1" stroke-width="0.677186"/>
<circle cx="206.5" cy="206.5" r="206.5" fill="#93A2D3" fill-opacity="0.1"/>
<circle cx="206.5" cy="206.5" r="205.991" stroke="#93A2D3" stroke-opacity="0.1" stroke-width="1.01724"/>
<circle cx="206.499" cy="206.5" r="163.776" fill="#93A2D3" fill-opacity="0.1"/>
<circle cx="206.499" cy="206.5" r="163.267" stroke="#93A2D3" stroke-opacity="0.1" stroke-width="1.01724"/>
<circle cx="207.516" cy="205.483" r="118" fill="#93A2D3" fill-opacity="0.1"/>
<circle cx="207.516" cy="205.483" r="117.491" stroke="#93A2D3" stroke-opacity="0.1" stroke-width="1.01724"/>
<circle cx="207.515" cy="205.482" r="83.4138" fill="#93A2D3" fill-opacity="0.1"/>
<circle cx="207.515" cy="205.482" r="82.9052" stroke="#93A2D3" stroke-opacity="0.1" stroke-width="1.01724"/>
<path d="M200.871 192.72C199.777 192.053 198.711 191.72 197.671 191.72C195.991 191.72 194.151 191.987 192.151 192.52L189.991 193.04C189.351 193.2 188.857 193.28 188.511 193.28C187.711 193.28 187.311 192.987 187.311 192.4C187.311 192.053 187.604 191.627 188.191 191.12C188.751 190.587 189.511 190.08 190.471 189.6C192.844 188.427 195.417 187.84 198.191 187.84C202.164 187.84 204.711 188.52 205.831 189.88C206.151 190.253 206.311 190.773 206.311 191.44C206.257 194.027 205.057 200.907 202.711 212.08C205.857 210.8 207.777 209.747 208.471 208.92C209.191 208.093 209.751 207.68 210.151 207.68C210.551 207.68 210.751 208.093 210.751 208.92C210.751 209.747 210.497 210.467 209.991 211.08C209.511 211.693 208.737 212.387 207.671 213.16C206.631 213.933 204.711 214.92 201.911 216.12C201.697 217.187 201.297 218.373 200.711 219.68C198.711 225.2 195.444 227.96 190.911 227.96C188.697 227.96 186.817 227.48 185.271 226.52C183.724 225.56 182.951 224.08 182.951 222.08C182.951 221.36 183.324 220.68 184.071 220.04C184.791 219.4 185.857 218.72 187.271 218C188.657 217.307 191.377 216.24 195.431 214.8C195.591 213.867 195.724 213 195.831 212.2C195.937 211.373 196.057 210.667 196.191 210.08C196.751 206.267 197.857 201.773 199.511 196.6C199.991 195.133 200.444 193.84 200.871 192.72ZM188.231 224.2C189.031 224.627 189.791 224.84 190.511 224.84C191.231 224.867 191.777 224.707 192.151 224.36C192.524 224.04 192.924 223.507 193.351 222.76C193.804 222.013 194.244 220.707 194.671 218.84C193.284 219.32 192.097 219.72 191.111 220.04C190.151 220.36 189.364 220.653 188.751 220.92C188.164 221.187 187.737 221.44 187.471 221.68C187.177 221.92 187.031 222.213 187.031 222.56C187.031 223.227 187.431 223.773 188.231 224.2ZM221.86 203.56C221.86 202.6 221.287 202.12 220.14 202.12C219.02 202.12 217.913 203 216.82 204.76C215.727 206.493 215.047 208.267 214.78 210.08C214.833 210.693 214.887 211.307 214.94 211.92C214.993 212.533 215.02 213.133 215.02 213.72C215.02 215.133 214.553 216.093 213.62 216.6C213.193 216.84 212.78 217.067 212.38 217.28C212.007 217.493 211.567 217.6 211.06 217.6C210.553 217.6 210.1 217.267 209.7 216.6C209.327 215.907 209.14 214.84 209.14 213.4C209.14 209.373 209.433 205.88 210.02 202.92C210.927 198.333 212.727 193.427 215.42 188.2C215.793 187.48 216.34 187.133 217.06 187.16C217.78 187.16 218.367 187.653 218.82 188.64C219.273 189.627 219.487 190.453 219.46 191.12C219.46 191.787 219.353 192.44 219.14 193.08C218.953 193.693 218.7 194.307 218.38 194.92C218.087 195.507 217.74 196.12 217.34 196.76C216.967 197.373 216.593 198.04 216.22 198.76L215.62 201.64C216.66 199.907 218.06 198.747 219.82 198.16C220.46 197.947 221.167 197.84 221.94 197.84C223.753 197.84 225.127 198.253 226.06 199.08C226.993 199.88 227.46 201.027 227.46 202.52C227.46 203.987 227.26 205.48 226.86 207C226.487 208.52 226.207 209.613 226.02 210.28C225.86 210.92 225.78 211.453 225.78 211.88C225.78 212.307 225.927 212.52 226.22 212.52C226.62 212.52 227.113 212.267 227.7 211.76C228.287 211.253 228.873 210.707 229.46 210.12C230.047 209.507 230.58 208.947 231.06 208.44C231.567 207.933 231.913 207.68 232.1 207.68C232.473 207.68 232.66 208.133 232.66 209.04C232.66 210.907 231.74 212.707 229.9 214.44C226.807 216.253 224.833 217.16 223.98 217.16C223.9 217.16 223.847 217.147 223.82 217.12C221.687 217.12 220.62 215.413 220.62 212C220.62 210.533 220.753 209.187 221.02 207.96C221.313 206.733 221.527 205.84 221.66 205.28C221.793 204.72 221.86 204.147 221.86 203.56Z" fill="#05289B"/>
<defs>
<filter id="filter0_i_1373_2616" x="168" y="166" width="80.1992" height="81.1992" filterUnits="userSpaceOnUse" color-interpolation-filters="sRGB">
<feFlood flood-opacity="0" result="BackgroundImageFix"/>
<feBlend mode="normal" in="SourceGraphic" in2="BackgroundImageFix" result="shape"/>
<feColorMatrix in="SourceAlpha" type="matrix" values="0 0 0 0 0 0 0 0 0 0 0 0 0 0 0 0 0 0 127 0" result="hardAlpha"/>
<feOffset dx="3" dy="4"/>
<feGaussianBlur stdDeviation="2.5"/>
<feComposite in2="hardAlpha" operator="arithmetic" k2="-1" k3="1"/>
<feColorMatrix type="matrix" values="0 0 0 0 0 0 0 0 0 0 0 0 0 0 0 0 0 0 0.15 0"/>
<feBlend mode="normal" in2="shape" result="effect1_innerShadow_1373_2616"/>
</filter>
</defs>
</svg>
